<?xml version="1.0" standalone="no"?>
<!DOCTYPE svg PUBLIC "-//W3C//DTD SVG 20010904//EN"
 "http://www.w3.org/TR/2001/REC-SVG-20010904/DTD/svg10.dtd">
<svg version="1.0" xmlns="http://www.w3.org/2000/svg"
 width="1536.000000pt" height="1024.000000pt" viewBox="0 0 1536.000000 1024.000000"
 preserveAspectRatio="xMidYMid meet">

<g transform="translate(0.000000,1024.000000) scale(0.100000,-0.100000)"
fill="#000000" stroke="none">
<path d="M5478 8555 c-5 -38 -8 -260 -8 -492 l0 -423 -70 0 -70 0 0 -210 0
-210 -55 0 -55 0 0 -160 0 -160 -60 0 -60 0 -2 -1171 -3 -1171 -177 2 -178 1
0 -426 0 -425 -85 0 -85 0 0 875 0 875 -327 -2 -328 -3 -3 -97 -3 -97 -49 -3
-49 -3 -5 -835 c-3 -459 -5 -843 -5 -852 -1 -17 -18 -18 -206 -18 l-205 0 0
-185 0 -185 -55 0 -55 0 0 490 0 490 -302 -2 -303 -3 -3 -92 -3 -93 -55 0
c-39 0 -69 -7 -104 -25 l-50 -25 0 -420 0 -420 -95 0 -95 0 -2 238 -3 237
-285 0 -285 0 -1 -80 -1 -80 -67 -3 -66 -3 0 -370 0 -370 -87 3 -88 3 0 155 0
155 -247 3 -248 2 0 -130 0 -130 -155 0 -155 0 0 -200 0 -200 -175 0 -175 0 0
-55 0 -55 7350 0 7350 0 0 50 0 50 -165 0 -165 0 0 140 0 140 -215 0 -215 0 0
220 0 220 -255 0 -255 0 0 -190 0 -190 -75 0 -75 0 0 75 0 75 -120 0 -120 0 0
229 0 229 -102 42 c-136 56 -208 81 -219 74 -5 -3 -9 -63 -9 -135 l0 -129
-120 0 -120 0 0 -105 0 -105 -70 0 -70 0 -2 408 -3 407 -300 0 -300 0 -3 -192
-2 -193 -90 0 -90 0 0 368 0 367 -116 157 -115 158 -67 0 -67 0 -112 -150
-113 -149 0 -261 0 -260 -165 0 -165 0 0 765 0 765 -90 0 -90 0 0 145 0 145
-230 0 -230 0 0 -145 0 -144 -72 -3 -73 -3 -2 -200 c-1 -110 -2 -233 -3 -272
l0 -73 -190 0 -190 0 0 -410 0 -410 -70 0 -70 0 0 864 0 865 -32 3 c-33 3 -33
3 -41 72 -4 38 -19 95 -33 127 -31 69 -112 151 -179 180 l-45 20 0 99 c0 100
0 100 -25 100 l-25 0 -1 188 c-1 103 -5 198 -9 212 -5 14 -8 -65 -9 -187 l-1
-212 -32 -3 -33 -3 -3 -100 -3 -100 -55 -24 c-60 -26 -123 -83 -159 -145 -27
-47 -55 -144 -55 -193 0 -30 -3 -33 -30 -33 l-30 0 0 -680 0 -680 -135 0 -135
0 0 -310 0 -310 -55 0 -55 0 0 745 0 745 -300 0 -300 0 0 -140 0 -140 -90 0
-90 0 0 -375 0 -375 -70 0 -70 0 0 968 0 969 -25 23 c-20 18 -25 33 -25 69 0
38 -8 58 -48 116 l-47 70 -77 5 c-65 4 -82 9 -121 38 l-45 32 -160 0 -159 0
-32 -68 c-17 -38 -31 -74 -31 -81 0 -7 -9 -24 -20 -38 -13 -16 -20 -41 -20
-67 0 -35 -6 -48 -35 -76 l-35 -34 0 -363 0 -363 -240 0 -240 0 0 -560 0 -560
-95 0 -95 0 -2 1448 -3 1447 -62 3 -63 3 0 159 0 160 -50 0 -50 0 0 210 0 210
-73 0 -74 0 -7 378 c-4 207 -11 429 -14 492 l-7 115 -7 -70z"/>
</g>
</svg>
